<svg viewBox="0 0 360 360" focusable="false">
          <path d="M47 181C47 90 95 36 178 36s135 53 135 145v120c0 18-12 28-28 28H74c-17 0-27-10-27-28Z" fill="#DCF2FF"/>
          <path d="M74 307c28-9 63-13 104-13s77 4 108 13" fill="none" stroke="#B3D5E5" stroke-width="2" stroke-linecap="round"/>
          <g transform="rotate(-9 170 189)">
            <rect x="108" y="88" width="157" height="210" rx="42" fill="#B7DCCB" stroke="#25253E" stroke-width="2.5"/>
            <path d="M81 133c0-25 18-42 43-42h84c25 0 43 17 43 42v121c0 26-18 43-43 43h-84c-25 0-43-17-43-43Z" fill="#FFFCF5" stroke="#25253E" stroke-width="2.5"/>
            <rect x="143" y="105" width="49" height="10" rx="5" fill="#DCF2FF" stroke="#25253E" stroke-width="2.5"/>
            <circle cx="167" cy="185" r="36" fill="#FFD653"/>
            <path d="M176 185a14 14 0 1 0-20 0l-4 22h28Z" fill="#25253E"/>
            <path d="M125 246h84M141 260h52" fill="none" stroke="#B4BBC2" stroke-width="4" stroke-linecap="round"/>
          </g>
          <g fill="none" stroke="#25253E" stroke-width="2.5" stroke-linecap="round" stroke-linejoin="round">
            <path d="m279 69 4-15 4 15 14 5-14 5-4 15-4-15-14-5Z" fill="#FFD653"/>
            <path d="M64 169h-12m9-12-8-8M69 150v-11"/>
            <path d="m278 252 9-9 21 21-9 9-5-5-6 6-7-7 6-6Z" fill="#F5B6A6"/>
          </g>
          <circle cx="85" cy="79" r="7" fill="#F5B6A6"/>
          <circle cx="315" cy="202" r="5" fill="#25253E"/>
        </svg>